<svg class="svg-lora-graph4" xmlns="http://www.w3.org/2000/svg" width="600" height="600" viewBox="0 0 28 28">
<style type="text/css">
	.svg-lora-graph4 {fill: #0e979c;}
</style>
<path d="M815.179,6496a0.47,0.47,0,0,1-.2-0.05,0.437,0.437,0,0,1-.224-0.38v-6.16a10.506,10.506,0,0,1-5.754-9.72c0-6.66,6.018-11.69,14-11.69s14,5.03,14,11.69-6.018,11.69-14,11.69c-0.262,0-.519-0.01-0.777-0.03h-0.017l-6.794,4.58A0.4,0.4,0,0,1,815.179,6496ZM823,6468.86c-7.5,0-13.152,4.66-13.152,10.83a9.607,9.607,0,0,0,5.518,9.07,0.429,0.429,0,0,1,.236.39v5.61l6.253-4.21a0.4,0.4,0,0,1,.256-0.07l0.158,0.01c0.242,0.02.484,0.03,0.73,0.03,7.5,0,13.152-4.66,13.152-10.83S830.5,6468.86,823,6468.86Z" transform="translate(-809 -6468)"/>
</svg>