<?xml version="1.0" encoding="utf-8"?>
<!-- Generator: Adobe Illustrator 24.0.2, SVG Export Plug-In . SVG Version: 6.00 Build 0)  -->
<svg version="1.1" baseProfile="basic" id="Layer_1"
	 xmlns="http://www.w3.org/2000/svg" xmlns:xlink="http://www.w3.org/1999/xlink" x="0px" y="0px" viewBox="0 0 137.29 41.34"
	 xml:space="preserve">
<style type="text/css">
	.st0{fill:#FFFFFF;}
</style>
<path class="st0" d="M13.78,14.05l4.15,6.72v0.79h-6.06l-3.63-6.24H5.42v6.24H0V0.36h9.3c1.33,0,2.53,0.26,3.59,0.77
	c1.06,0.51,1.89,1.18,2.48,1.98c0.59,0.81,1.02,1.72,1.29,2.74c0.26,1.02,0.33,2.03,0.2,3.03c-0.13,1-0.46,1.96-0.99,2.89
	C15.34,12.71,14.65,13.47,13.78,14.05 M9.3,10.51c0.56,0,1.04-0.18,1.42-0.54s0.63-0.8,0.73-1.32c0.1-0.51,0.11-1.03,0.03-1.54
	c-0.08-0.52-0.32-0.96-0.71-1.33C10.37,5.4,9.88,5.21,9.3,5.21H8.07H6.63H5.42v5.3H9.3z"/>
<polygon class="st0" points="34.43,0.36 34.43,5.21 26.59,5.21 26.59,8.21 33.79,8.21 33.79,13.02 26.59,13.02 26.59,16.75 
	34.7,16.75 34.7,21.56 21.2,21.56 21.2,0.36 "/>
<polygon class="st0" points="44.78,0.36 44.78,16.69 52.47,16.69 52.47,21.56 39.33,21.56 39.33,0.36 "/>
<path class="st0" d="M70.61,21.56l-1.24-2.66h-8.36l-1.24,2.66h-5.3v-0.79l9.54-20.68h2.33l9.57,20.68v0.79H70.61z M67.59,14.23
	l-2.42-5.57l-2.36,5.57H67.59z"/>
<polygon class="st0" points="80.64,5.21 75.43,5.21 75.43,0.36 91.17,0.36 91.17,5.21 85.99,5.21 85.99,21.56 80.64,21.56 "/>
<path class="st0" d="M114.03,6.19c0.63,1.42,0.94,3.02,0.94,4.8c0,1.78-0.31,3.38-0.94,4.81c-0.63,1.43-1.45,2.59-2.47,3.47
	c-1.02,0.88-2.18,1.55-3.48,2.03c-1.3,0.47-2.63,0.71-3.98,0.71c-1.35,0-2.68-0.24-3.98-0.71c-1.3-0.47-2.46-1.15-3.48-2.03
	c-1.02-0.88-1.84-2.03-2.47-3.47c-0.63-1.43-0.94-3.04-0.94-4.81c0-1.78,0.31-3.38,0.94-4.8c0.63-1.42,1.45-2.57,2.47-3.45
	c1.02-0.88,2.18-1.55,3.48-2.03c1.3-0.47,2.63-0.71,3.98-0.71c1.35,0,2.68,0.24,3.98,0.71c1.3,0.48,2.46,1.15,3.48,2.03
	C112.58,3.62,113.41,4.77,114.03,6.19 M98.8,10.99c0,1.23,0.26,2.3,0.79,3.2c0.52,0.9,1.18,1.55,1.97,1.95
	c0.79,0.4,1.64,0.61,2.56,0.61s1.77-0.2,2.56-0.61s1.44-1.05,1.97-1.95c0.53-0.9,0.79-1.96,0.79-3.2c0-1.21-0.26-2.27-0.79-3.16
	c-0.52-0.9-1.18-1.54-1.97-1.94c-0.79-0.39-1.64-0.59-2.56-0.59s-1.77,0.2-2.56,0.59c-0.79,0.39-1.44,1.04-1.97,1.94
	C99.07,8.73,98.8,9.78,98.8,10.99"/>
<polygon class="st0" points="135.35,21.59 124.66,11.14 124.66,21.56 119.06,21.56 119.06,0.27 121.03,0.27 131.75,10.75 
	131.75,0.36 137.29,0.36 137.29,21.59 "/>
<path class="st0" d="M22.78,28.7h2.83c0.9,0,1.35,0.1,1.74,0.29c0.8,0.4,1.34,1.21,1.34,2.32c0,1.38-0.8,2.41-1.93,2.66v0.03
	c0,0,0.1,0.11,0.22,0.34l2.16,4.01h-0.7l-2.29-4.27h-2.77v4.27h-0.59V28.7z M25.99,33.52c1.27,0,2.07-0.91,2.07-2.22
	c0-0.85-0.43-1.54-1.13-1.86c-0.28-0.12-0.58-0.19-1.35-0.19h-2.21v4.27H25.99z"/>
<path class="st0" d="M25.99,33.41c1.19,0,1.96-0.83,1.96-2.11"/>
<path class="st0" d="M33.51,31.29c1.87,0,2.81,1.47,2.81,3.14c0,0.11-0.01,0.25-0.03,0.37h-5.52c0,2,1.35,3.14,2.95,3.14
	c0.77,0,1.58-0.32,2.14-0.87l0.32,0.48c-0.61,0.58-1.57,0.95-2.45,0.95c-1.94,0-3.56-1.41-3.56-3.6
	C30.16,32.58,31.74,31.29,33.51,31.29 M35.71,34.27c-0.07-1.68-1.08-2.44-2.22-2.44c-1.27,0-2.44,0.83-2.69,2.44H35.71z"/>
<path class="st0" d="M33.71,38.62c-2.12,0-3.66-1.56-3.66-3.7c0-2.56,1.79-3.73,3.46-3.73c2.02,0,2.92,1.63,2.92,3.25
	c0,0.11-0.01,0.25-0.03,0.38l-0.01,0.1h-5.51c0.05,1.73,1.2,2.93,2.84,2.93c0.75,0,1.54-0.32,2.06-0.84l0.09-0.09l0.44,0.67
	l-0.06,0.06C35.62,38.23,34.62,38.62,33.71,38.62 M33.51,31.4c-1.56,0-3.24,1.1-3.24,3.52c0,2.02,1.45,3.49,3.45,3.49
	c0.83,0,1.72-0.33,2.31-0.86l-0.19-0.3c-0.56,0.51-1.34,0.81-2.12,0.81c-1.8,0-3.06-1.34-3.06-3.25V34.7h5.54
	c0.01-0.1,0.02-0.19,0.02-0.27C36.21,32.92,35.37,31.4,33.51,31.4 M35.83,34.37h-5.14l0.02-0.13c0.24-1.54,1.33-2.53,2.79-2.53
	c1.07,0,2.25,0.67,2.33,2.54L35.83,34.37z M30.94,34.16h4.66c-0.11-1.64-1.15-2.22-2.1-2.22C32.19,31.93,31.19,32.8,30.94,34.16"/>
<path class="st0" d="M38.2,28.7h0.58v8.07c0,0.96,0.5,1.08,0.81,1.08c0.05,0,0.12,0,0.21-0.01v0.54c-0.06,0.01-0.14,0.03-0.25,0.03
	c-0.4,0-1.35-0.15-1.35-1.45V28.7z"/>
<path class="st0" d="M39.55,38.51c-0.34,0-1.46-0.11-1.46-1.55v-8.36h0.8v8.18c0,0.87,0.4,0.97,0.7,0.97c0.04,0.01,0.11,0,0.19-0.01
	l0.13-0.02v0.75l-0.08,0.02C39.77,38.49,39.68,38.51,39.55,38.51 M38.31,28.81v8.15c0,1.21,0.87,1.34,1.24,1.34
	c0.06,0,0.1,0,0.14-0.01v-0.33c-0.04,0-0.07,0-0.1,0c-0.6,0-0.92-0.41-0.92-1.18v-7.97H38.31z"/>
<path class="st0" d="M44.97,34.14h0.46v-0.23c0-1.53-0.78-2.05-1.89-2.05c-0.7,0-1.41,0.23-1.97,0.66l-0.33-0.47
	c0.54-0.47,1.46-0.76,2.33-0.76c1.59,0,2.44,0.88,2.44,2.6v4.45h-0.58v-0.91c0-0.37,0.06-0.62,0.06-0.62h-0.03
	c-0.35,0.89-1.21,1.7-2.41,1.7c-1.12,0-2.34-0.62-2.34-2C40.7,34.17,43.74,34.14,44.97,34.14 M43.07,37.97
	c1.5,0,2.36-1.56,2.36-2.92v-0.37h-0.44c-1.17,0-3.68,0-3.68,1.79C41.3,37.2,41.9,37.97,43.07,37.97"/>
<path class="st0" d="M43.04,38.62c-1.18,0-2.45-0.66-2.45-2.11c0-2.48,3.18-2.48,4.38-2.48h0.35v-0.13c0-1.31-0.58-1.95-1.78-1.95
	c-0.68,0-1.36,0.23-1.91,0.64l-0.09,0.07l-0.45-0.64l0.07-0.06c0.55-0.48,1.49-0.78,2.4-0.78c1.67,0,2.55,0.94,2.55,2.71v4.56h-0.79
	v-1.02c0-0.04,0-0.08,0-0.11C44.9,37.99,44.14,38.62,43.04,38.62 M44.97,34.25c-1.14,0-4.16,0-4.16,2.26c0,1.3,1.16,1.89,2.24,1.89
	c1.24,0,2.02-0.88,2.31-1.63l0.03-0.07h0.24l-0.03,0.13c0,0-0.05,0.24-0.05,0.6v0.8h0.36v-4.34c0-1.66-0.78-2.5-2.33-2.5
	c-0.82,0-1.66,0.26-2.18,0.67l0.21,0.3c0.57-0.4,1.25-0.62,1.95-0.62c1.32,0,2,0.73,2,2.16v0.34H44.97z M43.07,38.08
	c-1.23,0-1.87-0.81-1.87-1.61c0-1.9,2.56-1.9,3.79-1.9h0.55v0.48C45.53,36.51,44.59,38.08,43.07,38.08 M44.98,34.79
	c-1.16,0-3.57,0-3.57,1.68c0,0.69,0.57,1.39,1.65,1.39c1.39,0,2.25-1.46,2.25-2.81v-0.26H44.98z"/>
<path class="st0" d="M49.91,34.71l-2.22-3.25h0.7l1.67,2.51c0.11,0.18,0.23,0.39,0.23,0.39h0.03c0,0,0.12-0.21,0.23-0.39l1.67-2.51
	h0.7l-2.22,3.25l2.48,3.64h-0.72l-1.9-2.85c-0.12-0.19-0.25-0.4-0.25-0.4H50.3c0,0-0.11,0.19-0.25,0.4l-1.9,2.85h-0.71L49.91,34.71z
	"/>
<path class="st0" d="M53.4,38.45h-0.98l-0.03-0.05l-1.9-2.85c-0.06-0.1-0.12-0.2-0.17-0.27c-0.05,0.07-0.11,0.17-0.17,0.27
	l-1.93,2.9h-0.98l2.55-3.75l-2.29-3.36h0.96l0.03,0.05l1.67,2.51c0.06,0.09,0.11,0.19,0.16,0.26c0.04-0.07,0.1-0.17,0.16-0.26
	l1.7-2.56h0.96l-2.29,3.36L53.4,38.45z M52.53,38.24h0.45l-2.41-3.53l0.04-0.06l2.1-3.08h-0.44l-1.64,2.46
	c-0.11,0.18-0.23,0.38-0.23,0.38l-0.03,0.05h-0.15l-0.03-0.05c0,0-0.12-0.21-0.23-0.39l-1.63-2.45H47.9l2.15,3.14L50,34.77
	l-2.36,3.47h0.45l1.87-2.8c0.14-0.2,0.24-0.39,0.24-0.39l0.03-0.05h0.15l0.03,0.05c0,0,0.12,0.21,0.25,0.4L52.53,38.24z"/>
<path class="st0" d="M57.98,40.69c0.66,0,1.07-0.59,1.35-1.24l0.5-1.14l-2.85-6.85h0.62l2.27,5.5c0.14,0.33,0.25,0.65,0.25,0.65
	h0.03c0,0,0.1-0.32,0.23-0.65l2.27-5.5h0.62l-3.54,8.5c-0.3,0.72-0.88,1.28-1.75,1.28c-0.66,0-1.12-0.39-1.12-0.39l0.26-0.5
	C57.13,40.36,57.52,40.69,57.98,40.69"/>
<path class="st0" d="M57.99,41.34c-0.69,0-1.17-0.39-1.19-0.41l-0.06-0.06l0.36-0.69l0.1,0.09c0,0,0.36,0.3,0.79,0.3
	c0.5,0,0.91-0.38,1.25-1.18l0.48-1.1l-2.9-6.95h0.85l2.3,5.56c0.06,0.14,0.11,0.29,0.16,0.4c0.04-0.12,0.09-0.26,0.15-0.4l2.3-5.56
	h0.86l-0.06,0.15L59.83,40C59.47,40.85,58.8,41.34,57.99,41.34 M57.01,40.82c0.15,0.1,0.51,0.31,0.98,0.31
	c0.99,0,1.46-0.76,1.65-1.22l3.48-8.35h-0.38l-2.25,5.43c-0.13,0.32-0.23,0.63-0.23,0.64l-0.02,0.08h-0.18l-0.02-0.07
	c0,0-0.11-0.32-0.25-0.64l-2.25-5.43h-0.39l2.81,6.74l-0.51,1.19c-0.37,0.88-0.85,1.31-1.45,1.31c-0.36,0-0.66-0.17-0.82-0.28
	L57.01,40.82z"/>
<path class="st0" d="M67.71,31.29c1.97,0,3.57,1.56,3.57,3.57c0,2.05-1.6,3.65-3.57,3.65c-1.97,0-3.57-1.6-3.57-3.65
	C64.14,32.85,65.74,31.29,67.71,31.29 M67.71,37.94c1.64,0,2.96-1.34,2.96-3.09c0-1.71-1.32-3-2.96-3c-1.64,0-2.96,1.3-2.96,3
	C64.75,36.61,66.07,37.94,67.71,37.94"/>
<path class="st0" d="M67.71,38.62c-2.06,0-3.68-1.65-3.68-3.76c0-2.06,1.62-3.68,3.68-3.68c2.06,0,3.68,1.61,3.68,3.68
	C71.39,36.97,69.77,38.62,67.71,38.62 M67.71,31.4c-1.94,0-3.46,1.52-3.46,3.46c0,1.99,1.52,3.54,3.46,3.54
	c1.94,0,3.46-1.56,3.46-3.54C71.17,32.92,69.65,31.4,67.71,31.4 M67.71,38.05c-1.72,0-3.07-1.4-3.07-3.19
	c0-1.75,1.35-3.11,3.07-3.11c1.72,0,3.07,1.37,3.07,3.11C70.78,36.65,69.43,38.05,67.71,38.05 M67.71,31.96
	c-1.6,0-2.85,1.27-2.85,2.9c0,1.67,1.25,2.98,2.85,2.98c1.6,0,2.85-1.31,2.85-2.98C70.56,33.23,69.31,31.96,67.71,31.96"/>
<path class="st0" d="M73.09,31.45h0.58v4.16c0,1.2,0.15,2.33,1.69,2.33c1.72,0,2.83-1.52,2.83-3.13v-3.36h0.58v6.89h-0.58v-1.21
	c0-0.32,0.05-0.56,0.05-0.56h-0.03c-0.23,0.65-1.19,1.94-2.85,1.94c-1.69,0-2.27-0.94-2.27-2.69V31.45z"/>
<path class="st0" d="M75.37,38.62c-1.65,0-2.38-0.86-2.38-2.8v-4.48h0.8v4.27c0,1.41,0.26,2.22,1.59,2.22c1.7,0,2.72-1.54,2.72-3.02
	v-3.47h0.79v7.1h-0.79v-1.32c0-0.02,0-0.04,0-0.06C77.68,37.73,76.8,38.62,75.37,38.62 M73.2,31.56v4.26c0,1.81,0.65,2.58,2.16,2.58
	c1.51,0,2.49-1.15,2.75-1.87l0.03-0.07h0.24l-0.03,0.13c0,0-0.05,0.24-0.05,0.54v1.1h0.36v-6.67H78.3v3.25
	c0,1.59-1.1,3.24-2.93,3.24c-1.66,0-1.8-1.26-1.8-2.44v-4.05H73.2z"/>
<path class="st0" d="M81.17,31.45h0.58v1.31c0,0.32-0.06,0.57-0.06,0.57h0.03c0.34-1.06,1.12-1.93,2.2-1.93
	c0.14,0,0.27,0.01,0.4,0.04v0.58c-0.04-0.01-0.18-0.03-0.32-0.03c-1.61,0-2.26,1.97-2.26,3.38v2.98h-0.58V31.45z"/>
<path class="st0" d="M81.85,38.45h-0.8v-7.1h0.8v1.37c0.46-0.89,1.22-1.43,2.07-1.43c0.15,0,0.29,0.01,0.42,0.04l0.09,0.02v0.82
	l-0.14-0.05c-0.02-0.01-0.14-0.02-0.28-0.02c-1.57,0-2.15,2-2.15,3.27V38.45z M81.28,38.24h0.36v-2.87c0-1.4,0.63-3.48,2.37-3.48
	c0.07,0,0.14,0,0.21,0.01v-0.36c-0.09-0.01-0.19-0.02-0.29-0.02c-0.94,0-1.72,0.69-2.1,1.85l-0.02,0.08h-0.24l0.03-0.13
	c0,0,0.05-0.24,0.05-0.54v-1.2h-0.36V38.24z"/>
<path class="st0" d="M91.84,31.29c1.87,0,2.81,1.47,2.81,3.14c0,0.11-0.01,0.25-0.03,0.37H89.1c0,2,1.35,3.14,2.95,3.14
	c0.77,0,1.58-0.32,2.14-0.87l0.32,0.48c-0.61,0.58-1.57,0.95-2.45,0.95c-1.94,0-3.56-1.41-3.56-3.6
	C88.49,32.58,90.08,31.29,91.84,31.29 M94.05,34.27c-0.07-1.68-1.08-2.44-2.22-2.44c-1.27,0-2.44,0.83-2.69,2.44H94.05z"/>
<path class="st0" d="M92.05,38.62c-2.12,0-3.66-1.56-3.66-3.7c0-2.56,1.79-3.73,3.46-3.73c2.02,0,2.92,1.63,2.92,3.25
	c0,0.11-0.01,0.25-0.03,0.38l-0.01,0.1h-5.51c0.05,1.73,1.2,2.93,2.84,2.93c0.75,0,1.54-0.32,2.06-0.84l0.09-0.09l0.44,0.67
	l-0.06,0.06C93.95,38.23,92.96,38.62,92.05,38.62 M91.84,31.4c-1.56,0-3.24,1.1-3.24,3.52c0,2.02,1.45,3.49,3.45,3.49
	c0.83,0,1.72-0.33,2.31-0.86l-0.19-0.3c-0.56,0.51-1.34,0.81-2.12,0.81c-1.8,0-3.06-1.34-3.06-3.25V34.7h5.54
	c0.01-0.1,0.02-0.19,0.02-0.27C94.54,32.92,93.71,31.4,91.84,31.4 M94.16,34.37h-5.14l0.02-0.13c0.24-1.54,1.33-2.53,2.79-2.53
	c1.07,0,2.25,0.67,2.33,2.54L94.16,34.37z M89.27,34.16h4.66c-0.11-1.64-1.15-2.22-2.1-2.22C90.52,31.93,89.53,32.8,89.27,34.16"/>
<path class="st0" d="M100.18,34.14h0.46v-0.23c0-1.53-0.78-2.05-1.89-2.05c-0.7,0-1.41,0.23-1.97,0.66l-0.33-0.47
	c0.54-0.47,1.46-0.76,2.33-0.76c1.59,0,2.44,0.88,2.44,2.6v4.45h-0.58v-0.91c0-0.37,0.06-0.62,0.06-0.62h-0.03
	c-0.35,0.89-1.21,1.7-2.41,1.7c-1.12,0-2.34-0.62-2.34-2C95.91,34.17,98.95,34.14,100.18,34.14 M98.28,37.97
	c1.5,0,2.36-1.56,2.36-2.92v-0.37h-0.44c-1.17,0-3.68,0-3.68,1.79C96.51,37.2,97.1,37.97,98.28,37.97"/>
<path class="st0" d="M98.25,38.62c-1.18,0-2.45-0.66-2.45-2.11c0-2.48,3.18-2.48,4.38-2.48h0.35v-0.13c0-1.31-0.58-1.95-1.78-1.95
	c-0.68,0-1.36,0.23-1.91,0.64l-0.09,0.07l-0.45-0.64l0.07-0.06c0.55-0.48,1.49-0.78,2.4-0.78c1.67,0,2.55,0.94,2.55,2.71v4.56h-0.79
	v-1.02c0-0.04,0-0.08,0-0.11C100.11,37.99,99.34,38.62,98.25,38.62 M100.18,34.25c-1.14,0-4.16,0-4.16,2.26
	c0,1.3,1.16,1.89,2.24,1.89c1.24,0,2.02-0.88,2.31-1.63l0.03-0.07h0.24l-0.03,0.13c0,0-0.05,0.24-0.05,0.6v0.8h0.36v-4.34
	c0-1.66-0.78-2.5-2.33-2.5c-0.82,0-1.66,0.26-2.18,0.67l0.21,0.3c0.57-0.4,1.25-0.62,1.95-0.62c1.32,0,2,0.73,2,2.16v0.34H100.18z
	 M98.28,38.08c-1.23,0-1.87-0.81-1.87-1.61c0-1.9,2.56-1.9,3.79-1.9h0.55v0.48C100.74,36.51,99.8,38.08,98.28,38.08 M100.19,34.79
	c-1.16,0-3.57,0-3.57,1.68c0,0.69,0.57,1.39,1.65,1.39c1.39,0,2.25-1.46,2.25-2.81v-0.26H100.19z"/>
<path class="st0" d="M103.54,31.45h0.58v1.31c0,0.32-0.05,0.57-0.05,0.57h0.03c0.35-1.06,1.12-1.93,2.21-1.93
	c0.14,0,0.27,0.01,0.4,0.04v0.58c-0.04-0.01-0.18-0.03-0.32-0.03c-1.61,0-2.26,1.97-2.26,3.38v2.98h-0.58V31.45z"/>
<path class="st0" d="M104.22,38.45h-0.79v-7.1h0.79v1.37c0.46-0.89,1.22-1.43,2.07-1.43c0.15,0,0.29,0.01,0.42,0.04l0.09,0.02v0.82
	l-0.14-0.05c-0.02-0.01-0.14-0.02-0.28-0.02c-1.57,0-2.15,2-2.15,3.27V38.45z M103.65,38.24h0.36v-2.87c0-1.4,0.63-3.48,2.37-3.48
	c0.07,0,0.14,0,0.21,0.01v-0.36c-0.09-0.01-0.19-0.02-0.29-0.02c-0.94,0-1.72,0.69-2.1,1.85l-0.02,0.08h-0.24l0.03-0.13
	c0,0,0.05-0.24,0.05-0.54v-1.2h-0.36V38.24z"/>
<path class="st0" d="M107.96,37.08c0.52,0.55,1.35,0.87,2.14,0.87c0.84,0,1.58-0.44,1.58-1.29c0-1.75-3.79-1.25-3.79-3.5
	c0-1.23,1.03-1.86,2.2-1.86c0.72,0,1.51,0.21,2.04,0.74l-0.35,0.47c-0.4-0.43-1.1-0.65-1.74-0.65c-0.79,0-1.56,0.36-1.56,1.25
	c0,1.79,3.79,1.25,3.79,3.54c0,1.1-0.94,1.86-2.2,1.86c-0.88,0-1.86-0.3-2.49-0.99L107.96,37.08z"/>
<path class="st0" d="M110.08,38.62c-1.02,0-1.98-0.38-2.57-1.03l-0.06-0.07l0.51-0.61l0.08,0.09c0.49,0.52,1.28,0.83,2.06,0.83
	c0.73,0,1.48-0.37,1.48-1.19c0-0.75-0.76-1.05-1.65-1.39c-1-0.39-2.14-0.84-2.14-2.1c0-1.36,1.16-1.97,2.31-1.97
	c0.86,0,1.64,0.28,2.12,0.78l0.06,0.07l-0.48,0.65l-0.09-0.1c-0.35-0.37-1-0.61-1.66-0.61c-0.7,0-1.45,0.3-1.45,1.15
	c0,0.77,0.77,1.07,1.65,1.42c1,0.39,2.14,0.84,2.14,2.13C112.39,37.79,111.42,38.62,110.08,38.62 M107.73,37.51
	c0.56,0.56,1.43,0.89,2.35,0.89c1.23,0,2.09-0.72,2.09-1.75c0-1.14-1.01-1.54-2-1.92c-0.88-0.35-1.79-0.7-1.79-1.62
	c0-1,0.9-1.36,1.66-1.36c0.67,0,1.32,0.23,1.72,0.59l0.21-0.29c-0.44-0.41-1.13-0.65-1.9-0.65c-1.04,0-2.1,0.54-2.1,1.75
	c0,1.12,1.02,1.52,2,1.9c0.92,0.36,1.79,0.7,1.79,1.59c0,0.97-0.85,1.4-1.69,1.4c-0.79,0-1.6-0.31-2.13-0.82L107.73,37.51z"/>
</svg>
